<svg aria-hidden="true" style="width:0;height:0;position:absolute;overflow:hidden" xmlns="http://www.w3.org/2000/svg"><defs><symbol id="icon-done" viewBox="0 0 32 32"><path fill="#fff" style="fill:var(--color1,#fff);stroke:var(--color2,#dcddeb)" stroke="#dcddeb" stroke-width=".348" d="M16 26.957c6.819 0 12.348-5.528 12.348-12.348S22.82 2.261 16 2.261c-6.819 0-12.348 5.528-12.348 12.348S9.18 26.957 16 26.957z"/><path fill="#0075ff" style="fill:var(--color3,#0075ff)" d="M15.861 21.288a6.818 6.818 0 1 0 0-13.636 6.818 6.818 0 0 0 0 13.636z"/><path fill="#edf5ff" style="fill:var(--color4,#edf5ff)" d="M15.18 17.197a.68.68 0 0 1-.482-.2l-2.045-2.045c-.267-.267-.267-.697 0-.964s.697-.267.964 0l1.563 1.563 2.927-2.927c.267-.267.697-.267.964 0s.267.697 0 .964l-3.409 3.409a.68.68 0 0 1-.482.2z"/></symbol><symbol id="icon-employees" viewBox="0 0 32 32"><path fill="#fff" style="fill:var(--color1,#fff);stroke:var(--color2,#dcddeb)" stroke="#dcddeb" stroke-width=".348" d="M16 26.957c6.819 0 12.348-5.528 12.348-12.348S22.82 2.261 16 2.261c-6.819 0-12.348 5.528-12.348 12.348S9.18 26.957 16 26.957z"/><path fill="#123578" style="fill:var(--color5,#123578)" d="M18.506 15.509h-5.013a2.506 2.506 0 0 0 0 5.012h5.013a2.506 2.506 0 0 0 0-5.012z"/><path fill="#0075ff" style="fill:var(--color3,#0075ff)" d="M16 14.077a2.864 2.864 0 1 0 0-5.727 2.864 2.864 0 0 0 0 5.727z"/></symbol><symbol id="icon-heart" viewBox="0 0 32 32"><path fill="#fff" style="fill:var(--color1,#fff);stroke:var(--color2,#dcddeb)" stroke="#dcddeb" stroke-width=".348" d="M16 26.957c6.819 0 12.348-5.528 12.348-12.348S22.82 2.261 16 2.261c-6.819 0-12.348 5.528-12.348 12.348S9.18 26.957 16 26.957z"/><path fill="#0075ff" style="fill:var(--color3,#0075ff)" d="M15.763 17.396a2.02 2.02 0 1 1 2.858-2.859c.086.086.157.179.225.275.067-.096.139-.189.225-.275a2.018 2.018 0 0 1 2.858 0c.026.026.045.058.07.085a3.697 3.697 0 0 0-3.184-5.578c-.948 0-1.898.362-2.621 1.086a3.69 3.69 0 0 0-.412.504 3.69 3.69 0 0 0-.412-.504c-.724-.724-1.673-1.086-2.621-1.086s-1.897.362-2.621 1.086a3.706 3.706 0 0 0 0 5.242c.629.629 4.436 3.796 4.7 4.06s.608.395.953.395.69-.132.953-.395c.062-.062.322-.286.686-.596-.656-.556-1.458-1.237-1.66-1.439z"/><path fill="#123578" style="fill:var(--color5,#123578)" d="M21.93 14.537c-.395-.395-.912-.592-1.429-.592s-1.035.197-1.429.592a2.08 2.08 0 0 0-.225.275 2.004 2.004 0 0 0-.225-.275 2.018 2.018 0 0 0-2.858 0 2.02 2.02 0 0 0 0 2.859c.343.343 2.419 2.07 2.563 2.214s.332.215.52.215.376-.072.52-.215 2.221-1.872 2.563-2.214a2.02 2.02 0 0 0 0-2.859z"/></symbol></defs></svg>