<svg aria-hidden="true" style="position: absolute; width: 0; height: 0; overflow: hidden;" version="1.1" xmlns="http://www.w3.org/2000/svg" xmlns:xlink="http://www.w3.org/1999/xlink">
<defs>
<symbol id="icon-done" viewBox="0 0 32 32">
<path fill="#fff" style="fill: var(--color1, #fff); stroke: var(--color2, #dcddeb)" stroke="#dcddeb" stroke-linejoin="miter" stroke-linecap="butt" stroke-miterlimit="4" stroke-width="0.3478" d="M16 26.957c6.819 0 12.348-5.528 12.348-12.348s-5.528-12.348-12.348-12.348c-6.819 0-12.348 5.528-12.348 12.348s5.528 12.348 12.348 12.348z"></path>
<path fill="#0075ff" style="fill: var(--color3, #0075ff)" d="M15.861 21.288c3.765 0 6.818-3.052 6.818-6.818s-3.053-6.818-6.818-6.818c-3.765 0-6.818 3.052-6.818 6.818s3.053 6.818 6.818 6.818z"></path>
<path fill="#edf5ff" style="fill: var(--color4, #edf5ff)" d="M15.18 17.197c-0.175 0-0.349-0.067-0.482-0.2l-2.045-2.045c-0.267-0.267-0.267-0.697 0-0.964s0.697-0.267 0.964 0l1.563 1.563 2.927-2.927c0.267-0.267 0.697-0.267 0.964 0s0.267 0.697 0 0.964l-3.409 3.409c-0.133 0.133-0.307 0.2-0.482 0.2z"></path>
</symbol>
<symbol id="icon-employees" viewBox="0 0 32 32">
<path fill="#fff" style="fill: var(--color1, #fff); stroke: var(--color2, #dcddeb)" stroke="#dcddeb" stroke-linejoin="miter" stroke-linecap="butt" stroke-miterlimit="4" stroke-width="0.3478" d="M16 26.957c6.819 0 12.348-5.528 12.348-12.348s-5.528-12.348-12.348-12.348c-6.819 0-12.348 5.528-12.348 12.348s5.528 12.348 12.348 12.348z"></path>
<path fill="#123578" style="fill: var(--color5, #123578)" d="M18.506 15.509h-5.013c-1.384 0-2.506 1.122-2.506 2.506s1.122 2.506 2.506 2.506h5.013c1.384 0 2.506-1.122 2.506-2.506s-1.122-2.506-2.506-2.506z"></path>
<path fill="#0075ff" style="fill: var(--color3, #0075ff)" d="M16 14.077c1.582 0 2.864-1.282 2.864-2.864s-1.282-2.864-2.864-2.864c-1.582 0-2.864 1.282-2.864 2.864s1.282 2.864 2.864 2.864z"></path>
</symbol>
<symbol id="icon-heart" viewBox="0 0 32 32">
<path fill="#fff" style="fill: var(--color1, #fff); stroke: var(--color2, #dcddeb)" stroke="#dcddeb" stroke-linejoin="miter" stroke-linecap="butt" stroke-miterlimit="4" stroke-width="0.3478" d="M16 26.957c6.819 0 12.348-5.528 12.348-12.348s-5.528-12.348-12.348-12.348c-6.819 0-12.348 5.528-12.348 12.348s5.528 12.348 12.348 12.348z"></path>
<path fill="#0075ff" style="fill: var(--color3, #0075ff)" d="M15.763 17.396c-0.79-0.79-0.79-2.070 0-2.859 0.395-0.394 0.912-0.592 1.429-0.592s1.035 0.197 1.429 0.592c0.086 0.086 0.157 0.179 0.225 0.275 0.067-0.096 0.139-0.189 0.225-0.275 0.395-0.394 0.912-0.592 1.429-0.592s1.035 0.197 1.429 0.592c0.026 0.026 0.045 0.058 0.070 0.085 0.836-1.421 0.657-3.274-0.563-4.493-0.724-0.723-1.673-1.085-2.621-1.085s-1.898 0.362-2.621 1.086c-0.157 0.157-0.289 0.328-0.412 0.504-0.123-0.176-0.255-0.347-0.412-0.504-0.724-0.724-1.673-1.086-2.621-1.086s-1.897 0.362-2.621 1.086c-1.448 1.448-1.448 3.794 0 5.242 0.629 0.629 4.436 3.796 4.7 4.060s0.608 0.395 0.953 0.395 0.69-0.132 0.953-0.395c0.062-0.062 0.322-0.286 0.686-0.596-0.656-0.556-1.458-1.237-1.66-1.439z"></path>
<path fill="#123578" style="fill: var(--color5, #123578)" d="M21.93 14.537c-0.395-0.395-0.912-0.592-1.429-0.592s-1.035 0.197-1.429 0.592c-0.086 0.086-0.157 0.179-0.225 0.275-0.067-0.096-0.139-0.189-0.225-0.275-0.395-0.394-0.912-0.592-1.429-0.592s-1.035 0.197-1.429 0.592c-0.79 0.79-0.79 2.070 0 2.859 0.343 0.343 2.419 2.070 2.563 2.214s0.332 0.215 0.52 0.215c0.188 0 0.376-0.072 0.52-0.215s2.221-1.872 2.563-2.214c0.79-0.79 0.79-2.069 0-2.859z"></path>
</symbol>
<symbol id="icon-call" viewBox="0 0 32 32">
<path fill="#fff" style="fill: var(--color1, #fff); stroke: var(--color2, #dcddeb)" stroke="#dcddeb" stroke-linejoin="miter" stroke-linecap="butt" stroke-miterlimit="4" stroke-width="0.4444" d="M16 31.778c8.714 0 15.778-7.064 15.778-15.778s-7.064-15.778-15.778-15.778c-8.714 0-15.778 7.064-15.778 15.778s7.064 15.778 15.778 15.778z"></path>
<path fill="#0075ff" style="fill: var(--color3, #0075ff)" d="M20.927 23.726c-0.006 0-0.011 0-0.017 0-2.639-0.086-5.731-2.645-7.862-4.777-2.133-2.132-4.692-5.225-4.774-7.852-0.030-0.922 2.232-2.561 2.255-2.578 0.587-0.409 1.239-0.263 1.506 0.107 0.181 0.251 1.896 2.849 2.082 3.144 0.193 0.306 0.165 0.761-0.077 1.218-0.133 0.254-0.575 1.030-0.782 1.392 0.224 0.318 0.815 1.099 2.036 2.32 1.222 1.221 2.001 1.814 2.321 2.037 0.362-0.207 1.139-0.649 1.392-0.782 0.45-0.239 0.903-0.269 1.211-0.080 0.316 0.193 2.907 1.916 3.146 2.082 0.2 0.141 0.329 0.383 0.355 0.664 0.025 0.284-0.063 0.584-0.245 0.846-0.015 0.022-1.635 2.257-2.549 2.257z"></path>
</symbol>
</defs>
</svg>
